<svg xmlns="http://www.w3.org/2000/svg" width="42" height="44" viewBox="0 0 42 44">
  <defs>
    <style>
      .cls-1 {
        fill: #fff;
        fill-rule: evenodd;
      }
    </style>
  </defs>
  <path id="Forma_1" data-name="Forma 1" class="cls-1" d="M945.044,480.872a0.937,0.937,0,1,1-.954.937A0.946,0.946,0,0,1,945.044,480.872Zm0,5.617a0.937,0.937,0,1,1-.954.937A0.946,0.946,0,0,1,945.044,486.489Zm2.864-2.808a0.936,0.936,0,1,1-.954.936A0.946,0.946,0,0,1,947.908,483.681Zm0,5.617a0.936,0.936,0,1,1-.954.936A0.946,0.946,0,0,1,947.908,489.3Zm-5.727-5.617a0.936,0.936,0,1,1-.955.936A0.945,0.945,0,0,1,942.181,483.681Zm0,5.617a0.936,0.936,0,1,1-.955.936A0.945,0.945,0,0,1,942.181,489.3Zm2.863,2.808a0.937,0.937,0,1,1-.954.937A0.946,0.946,0,0,1,945.044,492.106Zm0,5.617a0.937,0.937,0,1,1-.954.937A0.946,0.946,0,0,1,945.044,497.723Zm2.864-2.808a0.936,0.936,0,1,1-.954.936A0.946,0.946,0,0,1,947.908,494.915Zm0,5.617a0.936,0.936,0,1,1-.954.936A0.946,0.946,0,0,1,947.908,500.532Zm-5.727-5.617a0.936,0.936,0,1,1-.955.936A0.945,0.945,0,0,1,942.181,494.915Zm0,5.617a0.936,0.936,0,1,1-.955.936A0.945,0.945,0,0,1,942.181,500.532Zm2.863,2.808a0.937,0.937,0,1,1-.954.937A0.946,0.946,0,0,1,945.044,503.34Zm0,5.617a0.937,0.937,0,1,1-.954.937A0.946,0.946,0,0,1,945.044,508.957Zm2.864-2.808a0.936,0.936,0,1,1-.954.936A0.946,0.946,0,0,1,947.908,506.149Zm0,5.617a0.936,0.936,0,1,1-.954.936A0.946,0.946,0,0,1,947.908,511.766Zm-5.727-5.617a0.936,0.936,0,1,1-.955.936A0.945,0.945,0,0,1,942.181,506.149Zm0,5.617a0.936,0.936,0,1,1-.955.936A0.945,0.945,0,0,1,942.181,511.766Zm2.863,2.808a0.937,0.937,0,1,1-.954.937A0.946,0.946,0,0,1,945.044,514.574Zm2.864,2.809a0.936,0.936,0,1,1-.954.936A0.946,0.946,0,0,1,947.908,517.383Zm-5.727,0a0.936,0.936,0,1,1-.955.936A0.945,0.945,0,0,1,942.181,517.383ZM925,523h41.047a0.936,0.936,0,1,0,0-1.872h-0.954V486.489H953.636v34.639h-2.864V479H939.317v42.128h-2.864V508.021H925v13.107m1.909,0V509.894h7.637v11.234h-7.637Zm19.092,0a0.955,0.955,0,0,0-1.909,0h-2.864V480.872h7.637v40.256H946Zm9.546,0V488.362h7.637v32.766h-7.637Z" transform="translate(-925 -479)"/>
</svg>
