<svg xmlns="http://www.w3.org/2000/svg" width="46" height="45" viewBox="0 0 46 45">
  <defs>
    <style>
      .cls-1 {
        fill: #fff;
        fill-rule: evenodd;
      }
    </style>
  </defs>
  <path id="Forma_1" data-name="Forma 1" class="cls-1" d="M332.767,503.254a0.759,0.759,0,0,0,.767-0.75,21.269,21.269,0,0,1,21.478-21,21.665,21.665,0,0,1,13.272,4.5h-4.067a0.75,0.75,0,1,0,0,1.5h6.071a0.666,0.666,0,0,0,.148,0h0.684V480.75a0.768,0.768,0,0,0-1.535,0v4.359A23.183,23.183,0,0,0,355.012,480C342.323,480,332,490.1,332,502.5A0.759,0.759,0,0,0,332.767,503.254ZM355.012,486a16.507,16.507,0,1,0,16.875,16.5A16.711,16.711,0,0,0,355.012,486Zm0,31.5a15.006,15.006,0,1,1,15.341-15A15.192,15.192,0,0,1,355.012,517.506Zm0-26.254a0.759,0.759,0,0,0,.767-0.75V489a0.767,0.767,0,0,0-1.534,0v1.5A0.759,0.759,0,0,0,355.012,491.252Zm0,22.5a0.759,0.759,0,0,0-.767.75v1.5a0.767,0.767,0,0,0,1.534,0v-1.5A0.759,0.759,0,0,0,355.012,513.756Zm12.273-10.5h1.534a0.751,0.751,0,1,0,0-1.5h-1.534A0.751,0.751,0,1,0,367.285,503.254Zm-24.546-1.5h-1.534a0.751,0.751,0,1,0,0,1.5h1.534A0.751,0.751,0,1,0,342.739,501.753Zm13.04-2.893V495a0.767,0.767,0,0,0-1.534,0v3.857a3.01,3.01,0,0,0-2.3,2.893,2.911,2.911,0,0,0,.435,1.515l-6.347,6.206a0.738,0.738,0,0,0,0,1.061,0.779,0.779,0,0,0,1.085,0l6.346-6.206a3.081,3.081,0,0,0,1.549.425A2.988,2.988,0,0,0,355.779,498.86Zm-0.767,4.394a1.5,1.5,0,1,1,1.534-1.5A1.519,1.519,0,0,1,355.012,503.254ZM341.12,519.5a0.736,0.736,0,0,0,.161,1.05,0.755,0.755,0,0,0,.452.143,0.767,0.767,0,0,0,.622-0.3,0.749,0.749,0,0,0-.161-1.049A0.776,0.776,0,0,0,341.12,519.5Zm-3.574-4.793a0.79,0.79,0,0,0-1.074-.171,0.743,0.743,0,0,0-.176,1.049,0.781,0.781,0,0,0,.629.315,0.765,0.765,0,0,0,.444-0.142A0.745,0.745,0,0,0,337.546,514.708Zm0.3,1.635a0.736,0.736,0,0,0-.061,1.057,0.744,0.744,0,0,0,.575.256,0.769,0.769,0,0,0,.506-0.187,0.737,0.737,0,0,0,.062-1.058A0.778,0.778,0,0,0,337.844,516.343Zm2.64,1.613A0.783,0.783,0,0,0,339.4,518a0.739,0.739,0,0,0,.046,1.065,0.781,0.781,0,0,0,.514.195,0.8,0.8,0,0,0,.568-0.24,0.737,0.737,0,0,0-.046-1.058v-0.008Zm-4.135-5.071h-0.007a0.767,0.767,0,0,0-1.044-.277,0.732,0.732,0,0,0-.283,1.02,0.78,0.78,0,0,0,1.043.278A0.742,0.742,0,0,0,336.349,512.885Zm40.862-8.791h0.031A0.752,0.752,0,1,0,377.211,504.094Zm-44.244,1.4a0.752,0.752,0,1,0-.162-1.494,0.748,0.748,0,0,0-.682.818,0.758,0.758,0,0,0,.759.675h0.085Zm0.429,2.2a0.741,0.741,0,0,0,.591-0.885,0.757,0.757,0,0,0-.905-0.578,0.741,0.741,0,0,0-.591.886,0.751,0.751,0,0,0,.744.592A0.59,0.59,0,0,0,333.4,507.7Zm1.948,3.241a0.778,0.778,0,0,0-1.012-.383,0.747,0.747,0,0,0-.391.99,0.78,0.78,0,0,0,.705.45A0.764,0.764,0,0,0,335.344,510.943Zm-0.79-2.026a0.761,0.761,0,0,0-.959-0.487,0.746,0.746,0,0,0-.5.946,0.769,0.769,0,0,0,.729.516,0.845,0.845,0,0,0,.238-0.03A0.75,0.75,0,0,0,334.554,508.917ZM354.6,523.5a0.75,0.75,0,1,0-.031,1.5h0.015A0.75,0.75,0,1,0,354.6,523.5Zm17.389-8.139a0.739,0.739,0,0,0,.131,1.05,0.8,0.8,0,0,0,.475.157,0.768,0.768,0,0,0,.606-0.293,0.732,0.732,0,0,0-.138-1.049A0.773,0.773,0,0,0,371.987,515.361Zm-4.833,4.456a0.737,0.737,0,0,0-.192,1.042,0.762,0.762,0,0,0,.629.323,0.777,0.777,0,0,0,.437-0.128,0.737,0.737,0,0,0,.192-1.043A0.774,0.774,0,0,0,367.154,519.817Zm1.765-1.322a0.738,0.738,0,0,0-.084,1.058,0.776,0.776,0,0,0,1.081.083,0.736,0.736,0,0,0,.084-1.057A0.779,0.779,0,0,0,368.919,518.5Zm5.392-5.16a0.787,0.787,0,0,0-1.059.24,0.743,0.743,0,0,0,.245,1.035,0.806,0.806,0,0,0,.407.113,0.763,0.763,0,0,0,.652-0.354A0.741,0.741,0,0,0,374.311,513.335ZM370.537,517a0.729,0.729,0,0,0,.023,1.057,0.775,0.775,0,0,0,1.082-.023,0.736,0.736,0,0,0-.023-1.058A0.776,0.776,0,0,0,370.537,517Zm6.6-12.168a0.772,0.772,0,0,0-.867.638,0.75,0.75,0,0,0,.652.848,0.6,0.6,0,0,0,.108.007,0.761,0.761,0,0,0,.759-0.644A0.753,0.753,0,0,0,377.141,504.836Zm-0.36,2.22a0.783,0.783,0,0,0-.936.548,0.763,0.763,0,0,0,.56.915,0.779,0.779,0,0,0,.185.022,0.767,0.767,0,0,0,.744-0.57A0.754,0.754,0,0,0,376.781,507.056Zm-32.739,13.5a0.774,0.774,0,0,0-1.051.263,0.738,0.738,0,0,0,.261,1.028,0.749,0.749,0,0,0,.391.105,0.766,0.766,0,0,0,.66-0.368A0.739,0.739,0,0,0,344.042,520.552Zm32.14-11.32a0.768,0.768,0,0,0-.982.45,0.74,0.74,0,0,0,.453.96,0.768,0.768,0,0,0,.261.046,0.758,0.758,0,0,0,.721-0.5A0.741,0.741,0,0,0,376.182,509.232Zm-0.827,2.1a0.778,0.778,0,0,0-1.028.345,0.749,0.749,0,0,0,.353,1,0.782,0.782,0,0,0,1.027-.345A0.742,0.742,0,0,0,375.355,511.333Zm-22.974,12.016a0.757,0.757,0,0,0-.851.653,0.742,0.742,0,0,0,.667.832v0.008h0.092a0.757,0.757,0,0,0,.759-0.661A0.749,0.749,0,0,0,352.381,523.349Zm-4.319-.967a0.766,0.766,0,0,0-.974.465,0.748,0.748,0,0,0,.476.953,1,1,0,0,0,.253.037,0.764,0.764,0,0,0,.721-0.5A0.742,0.742,0,0,0,348.062,522.382Zm2.133,0.592a0.773,0.773,0,0,0-.921.563,0.756,0.756,0,0,0,.576.9,0.7,0.7,0,0,0,.176.015,0.758,0.758,0,0,0,.744-0.577A0.746,0.746,0,0,0,350.2,522.974Zm-4.188-1.4a0.768,0.768,0,0,0-1.021.359,0.745,0.745,0,0,0,.369,1,0.823,0.823,0,0,0,.322.067,0.764,0.764,0,0,0,.7-0.434A0.736,0.736,0,0,0,346.007,521.572Zm13.009,1.568a0.757,0.757,0,0,0-.614.877,0.768,0.768,0,0,0,.76.608,0.8,0.8,0,0,0,.138-0.008A0.752,0.752,0,1,0,359.016,523.14Zm2.156-.511a0.738,0.738,0,0,0-.514.93,0.768,0.768,0,0,0,.736.533,0.8,0.8,0,0,0,.222-0.03,0.749,0.749,0,0,0,.514-0.938A0.774,0.774,0,0,0,361.172,522.629Zm2.094-.735a0.748,0.748,0,0,0-.415.984,0.767,0.767,0,0,0,.706.457,0.845,0.845,0,0,0,.3-0.052,0.751,0.751,0,0,0,.415-0.983A0.781,0.781,0,0,0,363.266,521.894Zm-6.452,1.537a0.751,0.751,0,0,0,.069,1.5h0.061v-0.007a0.742,0.742,0,0,0,.7-0.8A0.767,0.767,0,0,0,356.814,523.431Zm8.453-2.474a0.73,0.73,0,0,0-.307,1.013,0.76,0.76,0,0,0,.675.4,0.7,0.7,0,0,0,.361-0.1,0.728,0.728,0,0,0,.306-1.012A0.761,0.761,0,0,0,365.267,520.957Z" transform="translate(-332 -480)"/>
</svg>
