<svg xmlns="http://www.w3.org/2000/svg" width="33.97" height="34" viewBox="0 0 33.97 34">
  <defs>
    <style>
      .cls-1 {
        fill: #fff;
        fill-rule: evenodd;
      }
    </style>
  </defs>
  <path class="cls-1" d="M1084.99,62.982a16.991,16.991,0,0,0-24.73,23.283l0.18,0.141a8.15,8.15,0,0,1-3.5,3.957,0.661,0.661,0,0,0,.19,1.244,9.681,9.681,0,0,0,7.23-1.971l0.03,0.028A16.99,16.99,0,0,0,1084.99,62.982Zm-6.41,19.29c-0.37.382-.77,0.735-1.12,1.13a2.221,2.221,0,0,1-1.9.721,7.8,7.8,0,0,1-3.02-.884,16.405,16.405,0,0,1-5.46-4.275,15.044,15.044,0,0,1-2.66-4.437,5.829,5.829,0,0,1-.45-2.473,2.065,2.065,0,0,1,.63-1.357c0.43-.4.82-0.819,1.24-1.23a1.168,1.168,0,0,1,1.76,0c0.34,0.332.67,0.664,1,1s0.65,0.643.97,0.968a1.183,1.183,0,0,1,0,1.808c-0.41.41-.81,0.82-1.23,1.216a0.254,0.254,0,0,0-.06.325,7.11,7.11,0,0,0,1.1,1.767,12.548,12.548,0,0,0,3.09,2.805c0.25,0.162.53,0.275,0.8,0.424a0.241,0.241,0,0,0,.34-0.064c0.4-.417.82-0.827,1.23-1.236a1.163,1.163,0,0,1,1.76,0q0.99,0.986,1.98,1.979A1.191,1.191,0,0,1,1078.58,82.272Zm-6.26-10.981,0.21-1.512a6.734,6.734,0,0,1,5.71,5.54l-1.5.262A5.225,5.225,0,0,0,1072.32,71.291Zm8.38,4.028a9.673,9.673,0,0,0-8.18-7.942l0.21-1.512a11.212,11.212,0,0,1,9.47,9.193Z" transform="translate(-1056 -58)"/>
</svg>
