<svg xmlns="http://www.w3.org/2000/svg" width="40" height="40" viewBox="0 0 40 40">
  <defs>
    <style>
      .cls-1 {
        fill: #fff;
        fill-rule: evenodd;
      }
    </style>
  </defs>
  <path id="Forma_1" data-name="Forma 1" class="cls-1" d="M941.509,7742.69a7.108,7.108,0,0,0-1.752-.82,23.158,23.158,0,0,0-2.263-.61c-0.655-.16-1.133-0.28-1.417-0.36a4.458,4.458,0,0,1-.824-0.33,1.829,1.829,0,0,1-.611-0.47,0.981,0.981,0,0,1-.2-0.62,1.214,1.214,0,0,1,.635-1.01,3.128,3.128,0,0,1,1.774-.45,2.81,2.81,0,0,1,1.709.41,3.481,3.481,0,0,1,.919,1.17,3.52,3.52,0,0,0,.611.84,1.307,1.307,0,0,0,.882.28,1.387,1.387,0,0,0,1.052-.45,1.463,1.463,0,0,0,.419-1.02,2.574,2.574,0,0,0-.319-1.2,3.754,3.754,0,0,0-1-1.15,5.3,5.3,0,0,0-1.691-.87,7.755,7.755,0,0,0-2.389-.32,8.557,8.557,0,0,0-3,.48,4.378,4.378,0,0,0-1.987,1.42,3.494,3.494,0,0,0-.7,2.13,3.331,3.331,0,0,0,.662,2.11,4.412,4.412,0,0,0,1.759,1.33,15.512,15.512,0,0,0,2.684.83,18.387,18.387,0,0,1,1.878.47,2.981,2.981,0,0,1,1.093.62,1.33,1.33,0,0,1,.395,1,1.561,1.561,0,0,1-.758,1.32,3.578,3.578,0,0,1-2.062.55,3.452,3.452,0,0,1-1.487-.27,2.228,2.228,0,0,1-.858-0.69,5.125,5.125,0,0,1-.589-1.07,2.433,2.433,0,0,0-.6-0.9,1.353,1.353,0,0,0-.9-0.32,1.446,1.446,0,0,0-1.068.41,1.315,1.315,0,0,0-.427.99,3.391,3.391,0,0,0,.655,1.9,4.826,4.826,0,0,0,1.686,1.54,7.571,7.571,0,0,0,3.666.79,8.026,8.026,0,0,0,3.2-.58,4.625,4.625,0,0,0,2.08-1.62,4.057,4.057,0,0,0,.717-2.35,3.85,3.85,0,0,0-.417-1.86A3.572,3.572,0,0,0,941.509,7742.69ZM937,7723a20,20,0,1,0,20,20A20,20,0,0,0,937,7723Zm4.794,31.2a5.8,5.8,0,0,1-2.807-.72,10.52,10.52,0,0,1-1.875.17,10.384,10.384,0,0,1-10.238-10.53,10.811,10.811,0,0,1,.207-2.12,6.215,6.215,0,0,1-.816-3.09,6.028,6.028,0,0,1,5.937-6.11,5.735,5.735,0,0,1,3.16.94,10.106,10.106,0,0,1,1.75-.16,10.393,10.393,0,0,1,10.239,10.54,10.9,10.9,0,0,1-.237,2.26,6.231,6.231,0,0,1,.617,2.71A6.028,6.028,0,0,1,941.794,7754.2Z" transform="translate(-917 -7723)"/>
</svg>
