<svg xmlns="http://www.w3.org/2000/svg" width="39" height="39" viewBox="0 0 39 39">
  <defs>
    <style>
      .cls-1 {
        fill: #fff;
        fill-rule: evenodd;
      }
    </style>
  </defs>
  <path id="Forma_1" data-name="Forma 1" class="cls-1" d="M877.5,7723a19.5,19.5,0,1,0,19.5,19.5A19.5,19.5,0,0,0,877.5,7723Zm9.891,21.61a37.4,37.4,0,0,1,2.687,2.7,7.718,7.718,0,0,1,.961,1.39,1,1,0,0,1-.607,1.55h-4a3.124,3.124,0,0,1-2.545-1.04c-0.552-.56-1.065-1.16-1.6-1.74a3.493,3.493,0,0,0-.719-0.64,0.83,0.83,0,0,0-1.33.32,4.177,4.177,0,0,0-.421,1.86,1.065,1.065,0,0,1-1.273,1.24,10.336,10.336,0,0,1-5.716-1.23,12.618,12.618,0,0,1-3.847-3.61,48.161,48.161,0,0,1-5.063-9.02c-0.32-.71-0.086-1.09.7-1.11q1.956-.03,3.912,0a1.149,1.149,0,0,1,1.085.81,24.209,24.209,0,0,0,2.651,4.92,4.368,4.368,0,0,0,1,1.1,0.611,0.611,0,0,0,1.034-.31,3.344,3.344,0,0,0,.23-1.03,15.41,15.41,0,0,0-.063-3.61,1.507,1.507,0,0,0-1.283-1.38c-0.382-.07-0.326-0.21-0.14-0.43a1.428,1.428,0,0,1,1.226-.61h4.513a1.078,1.078,0,0,1,.968,1.18l0,5.01a1.457,1.457,0,0,0,.637,1.28,0.891,0.891,0,0,0,.9-0.44,15.536,15.536,0,0,0,2.544-3.91c0.3-.62.567-1.26,0.823-1.9a0.985,0.985,0,0,1,1.02-.7l4.346,0.01a2.465,2.465,0,0,1,.385.02,0.757,0.757,0,0,1,.707,1.16,10.872,10.872,0,0,1-1.728,2.99c-0.726,1.01-1.5,1.97-2.219,2.98A1.365,1.365,0,0,0,887.391,7744.61Z" transform="translate(-858 -7723)"/>
</svg>
